<?xml version="1.0" encoding="UTF-8"?>
<svg id="logo_Bg" data-name="logo Bg" xmlns="http://www.w3.org/2000/svg" viewBox="0 0 196 27.7183">
  <g>
    <g>
      <polygon points="0 22.1004 26.5058 22.1004 25.0581 24.0707 0 24.0707 0 22.1004 0 22.1004" fill="#fff" stroke-width="0"/>
      <polygon points="0 18.4447 29.1986 18.4447 27.7483 20.4123 0 20.4123 0 18.4447 0 18.4447" fill="#fff" stroke-width="0"/>
      <polygon points="0 25.7588 23.8146 25.7588 22.3733 27.7156 0 27.7156 0 25.7588 0 25.7588" fill="#fff" stroke-width="0"/>
    </g>
    <g>
      <polygon points="196 24.0707 169.5976 24.0707 171.0446 22.1017 196 22.1017 196 24.0707 196 24.0707" fill="#fff" stroke-width="0"/>
      <polygon points="196 27.7156 166.9128 27.7183 168.3537 25.7588 196 25.7588 196 27.7156 196 27.7156" fill="#fff" stroke-width="0"/>
      <polygon points="173.7354 18.4447 196 18.4447 196 20.4136 172.287 20.415 173.7354 18.4447 173.7354 18.4447" fill="#fff" stroke-width="0"/>
    </g>
  </g>
  <g>
    <path d="M25.6726,27.7156l12.578-17.0888h15.6082c1.7252,0,1.7026.655.8595,1.7975-.8562,1.16-2.3134,3.1547-3.1854,4.3323-.4426.5982-1.2431,1.6881,1.4089,1.6881h20.9101c-1.739,2.3822-7.3796,9.2709-17.5083,9.2709h-30.671Z" fill="#fff" stroke-width="0"/>
    <path d="M97.7056,18.4433l-6.8202,9.2723h-17.9924s6.8172-9.2709,6.8233-9.2709l17.9893-.0014h0Z" fill="#fff" stroke-width="0"/>
    <path d="M123.7239,18.4447l-6.8239,9.2709h-17.9856s6.8178-9.2709,6.8239-9.2709h17.9856Z" fill="#fff" stroke-width="0"/>
    <path d="M129.5749,18.4447c.0006,0-1.314,1.7975-1.9528,2.6604-2.2593,3.0534-.2626,6.6105,7.1109,6.6105h28.8853l6.8226-9.2709h-40.8661Z" fill="#fff" stroke-width="0"/>
  </g>
  <g>
    <path d="M34.4685,0l-6.2621,8.5079h34.1288c1.7249,0,1.7023.655.8593,1.7975-.8562,1.1587-2.2894,3.1763-3.1614,4.3539-.4427.5969-1.2431,1.6867,1.4089,1.6867h13.9564s2.2495-3.0615,4.1352-5.6206c2.5655-3.4815.2225-10.7254-8.9486-10.7254h-36.1165Z" fill="#fff" stroke-width="0"/>
    <polygon points="125.2688 16.346 81.2619 16.346 93.2956 0 111.2819 0 104.3858 9.3722 112.4136 9.3722 119.3153 0 137.2989 0 125.2688 16.346 125.2688 16.346" fill="#fff" stroke-width="0"/>
    <path d="M162.2084,0l-12.0314,16.346h-19.0593S143.1532,0,143.1592,0h19.0492Z" fill="#fff" stroke-width="0"/>
  </g>
</svg>