<svg height="27.7183" viewBox="0 0 196 27.7183" width="196" xmlns="http://www.w3.org/2000/svg"><g fill="#d40511"><path d="m0 22.1h26.506l-1.448 1.971h-25.058z"/><path d="m0 18.445h29.199l-1.451 1.967h-27.748z"/><path d="m0 25.759h23.815l-1.442 1.957h-22.373z"/><path d="m196 24.071h-26.402l1.447-1.969h24.955z"/><path d="m196 27.716-29.087.002 1.441-1.959h27.646z"/><path d="m173.735 18.445h22.265v1.969l-23.713.001z"/><path d="m25.6726 27.7156 12.5779-17.0888h15.6082c1.7252 0 1.7026.655.86 1.7975-.8562 1.16-2.3133 3.1547-3.1854 4.3323-.4426.5982-1.2431 1.6881 1.4089 1.6881h20.91c-1.739 2.3822-7.38 9.2709-17.5082 9.2709z"/><path d="m97.7056 18.4433-6.82 9.2723h-17.9926s6.8172-9.2709 6.8233-9.2709z"/><path d="m123.7239 18.4447-6.8239 9.2709h-17.9857s6.8178-9.2709 6.8239-9.2709z"/><path d="m129.5749 18.4447c.0006 0-1.3141 1.7974-1.9529 2.66-2.2593 3.0534-.2626 6.61 7.111 6.61h28.8853l6.8226-9.2709z"/><path d="m34.4685 0-6.2621 8.5079h34.1289c1.7249 0 1.7023.655.8592 1.7975-.8562 1.1587-2.2894 3.1763-3.1614 4.3539-.4427.5969-1.2432 1.6867 1.4089 1.6867h13.9564s2.25-3.0615 4.1352-5.6206c2.5655-3.4815.2225-10.7254-8.9486-10.7254z"/><path d="m125.269 16.346h-44.007l12.034-16.346h17.986l-6.896 9.372h8.028l6.901-9.372h17.984z"/><path d="m162.2084 0-12.0314 16.346h-19.0593s12.0355-16.346 12.0415-16.346z"/></g></svg>